<svg width="1440" height="458" viewBox="0 0 1440 458" fill="none" xmlns="http://www.w3.org/2000/svg">
<g clip-path="url(#clip0_206_16)">
<g clip-path="url(#clip1_206_16)">
<path d="M357.358 395.015H294.259C291.832 381.532 287.316 369.667 280.709 359.421C274.103 349.174 266.013 340.477 256.44 333.332C246.868 326.186 236.149 320.793 224.284 317.152C212.554 313.512 200.083 311.692 186.87 311.692C163.005 311.692 141.635 317.692 122.76 329.691C104.019 341.691 89.1879 359.286 78.2669 382.476C67.4808 405.666 62.0877 433.98 62.0877 467.417C62.0877 501.123 67.4808 529.572 78.2669 552.762C89.1879 575.952 104.086 593.48 122.962 605.344C141.838 617.209 163.073 623.142 186.668 623.142C199.746 623.142 212.15 621.389 223.88 617.883C235.745 614.243 246.463 608.917 256.036 601.906C265.609 594.895 273.698 586.334 280.305 576.222C287.046 565.975 291.698 554.245 294.259 541.032L357.358 541.234C353.988 561.593 347.448 580.334 337.741 597.457C328.168 614.445 315.832 629.141 300.731 641.545C285.765 653.815 268.642 663.32 249.362 670.061C230.082 676.803 209.049 680.173 186.263 680.173C150.399 680.173 118.445 671.679 90.4013 654.691C62.3573 637.568 40.2458 613.097 24.0666 581.278C8.02219 549.459 0 511.505 0 467.417C0 423.194 8.0896 385.24 24.2688 353.556C40.448 321.736 62.5596 297.333 90.6035 280.345C118.647 263.222 150.534 254.66 186.263 254.66C208.24 254.66 228.733 257.829 247.744 264.165C266.889 270.367 284.08 279.536 299.315 291.67C314.551 303.67 327.157 318.366 337.134 335.758C347.111 353.016 353.853 372.768 357.358 395.015Z" fill="white" fill-opacity="0.02"/>
<path d="M466.848 260.323V674.51H404.356V260.323H466.848Z" fill="white" fill-opacity="0.02"/>
<path d="M530.075 674.51V260.323H789.751V314.119H592.567V440.317H776.201V493.91H592.567V620.715H792.178V674.51H530.075Z" fill="white" fill-opacity="0.02"/>
<path d="M1482.78 467.417C1482.78 511.64 1474.69 549.661 1458.51 581.48C1442.33 613.164 1420.15 637.568 1391.98 654.691C1363.93 671.679 1332.04 680.173 1296.32 680.173C1260.45 680.173 1228.43 671.679 1200.25 654.691C1172.21 637.568 1150.1 613.097 1133.92 581.278C1117.74 549.459 1109.65 511.505 1109.65 467.417C1109.65 423.194 1117.74 385.24 1133.92 353.556C1150.1 321.736 1172.21 297.333 1200.25 280.345C1228.43 263.222 1260.45 254.66 1296.32 254.66C1332.04 254.66 1363.93 263.222 1391.98 280.345C1420.15 297.333 1442.33 321.736 1458.51 353.556C1474.69 385.24 1482.78 423.194 1482.78 467.417ZM1420.9 467.417C1420.9 433.71 1415.44 405.329 1404.51 382.274C1393.73 359.083 1378.9 341.556 1360.02 329.691C1341.28 317.692 1320.05 311.692 1296.32 311.692C1272.45 311.692 1251.15 317.692 1232.41 329.691C1213.67 341.556 1198.84 359.083 1187.91 382.274C1177.13 405.329 1171.74 433.71 1171.74 467.417C1171.74 501.123 1177.13 529.572 1187.91 552.762C1198.84 575.817 1213.67 593.345 1232.41 605.344C1251.15 617.209 1272.45 623.142 1296.32 623.142C1320.05 623.142 1341.28 617.209 1360.02 605.344C1378.9 593.345 1393.73 575.817 1404.51 552.762C1415.44 529.572 1420.9 501.123 1420.9 467.417Z" fill="white" fill-opacity="0.02"/>
<path d="M845.45 260.321L845.45 674.509L907.942 674.509L907.942 314.117L1095.62 314.117L1095.62 260.321L845.45 260.321Z" fill="white" fill-opacity="0.02"/>
</g>
</g>
<defs>
<clipPath id="clip0_206_16">
<rect width="1440" height="458" fill="white"/>
</clipPath>
<clipPath id="clip1_206_16">
<rect width="1719" height="575.171" fill="white" transform="translate(0 105)"/>
</clipPath>
</defs>
</svg>
