<svg width="84.261078" height="33.000000" viewBox="0 0 84.2611 33" fill="none" xmlns="http://www.w3.org/2000/svg" xmlns:xlink="http://www.w3.org/1999/xlink">
	<desc>
			Created with Pixso.
	</desc>
	<defs/>
	<path id="CIELO" d="M16.72 16.48L20.3 16.48C20.1 15.21 19.72 14.09 19.15 13.11Q18.53 12.03 17.68 11.19Q17.36 10.88 17 10.6C16.14 9.91 15.16 9.39 14.07 9.04C12.99 8.68 11.83 8.5 10.58 8.5Q8.21 8.5 6.23 9.39Q5.67 9.64 5.14 9.96Q4.61 10.28 4.12 10.67Q2.44 12.01 1.37 14.12Q0 16.82 0 20.59Q0 24.35 1.36 27.06Q2.43 29.16 4.1 30.5L4.1 30.51Q4.59 30.9 5.13 31.23Q5.61 31.52 6.11 31.75Q8.13 32.68 10.58 32.68C11.87 32.68 13.07 32.49 14.17 32.11Q15.7 31.57 16.91 30.62L16.91 30.62L16.92 30.62Q17 30.55 17.08 30.48Q17.75 29.94 18.29 29.29L18.29 29.29Q18.79 28.68 19.19 27.98C19.74 27.01 20.11 25.94 20.3 24.78L16.72 24.77C16.57 25.52 16.31 26.19 15.92 26.77C15.55 27.35 15.09 27.83 14.54 28.23C14 28.63 13.39 28.93 12.72 29.14C12.05 29.34 11.35 29.44 10.6 29.44Q9.23 29.44 8.04 28.97Q7.49 28.75 6.98 28.43Q6.85 28.34 6.72 28.25L6.72 28.25Q5.3 27.25 4.44 25.44Q3.52 23.46 3.52 20.59Q3.52 17.74 4.44 15.76Q5.31 13.92 6.76 12.9L6.76 12.9Q6.87 12.83 6.97 12.76Q7.45 12.46 7.96 12.25L7.96 12.25Q9.18 11.74 10.61 11.74C11.37 11.74 12.07 11.84 12.74 12.05Q13.57 12.31 14.27 12.76L14.27 12.76L14.27 12.76Q14.42 12.86 14.57 12.97Q14.84 13.18 15.09 13.41Q15.57 13.88 15.95 14.45C16.32 15.04 16.58 15.71 16.72 16.48ZM82.88 27.07C83.8 25.26 84.26 23.1 84.26 20.59C84.26 18.08 83.8 15.92 82.88 14.12C81.96 12.31 80.7 10.92 79.1 9.96Q78.57 9.64 78.01 9.39Q76.03 8.5 73.66 8.5Q71.27 8.5 69.28 9.39Q68.72 9.64 68.2 9.96C66.61 10.92 65.35 12.31 64.43 14.12C63.51 15.92 63.05 18.08 63.05 20.59C63.05 23.1 63.51 25.25 64.43 27.06C65.35 28.87 66.61 30.26 68.2 31.23Q68.7 31.53 69.22 31.77Q71.24 32.68 73.66 32.68Q76.07 32.68 78.06 31.78Q78.59 31.54 79.1 31.23C80.7 30.26 81.96 28.87 82.88 27.07ZM26.52 32.36L26.52 8.82L22.97 8.82L22.97 32.36L26.52 32.36ZM30.12 32.36L30.12 8.82L44.87 8.82L44.87 11.88L33.67 11.88L33.67 19.05L44.1 19.05L44.1 22.1L33.67 22.1L33.67 29.3L45.01 29.3L45.01 32.36L30.12 32.36ZM79.81 15.75C80.43 17.06 80.74 18.67 80.74 20.59C80.74 22.51 80.43 24.12 79.81 25.44Q78.99 27.2 77.62 28.2Q77.45 28.32 77.28 28.43C76.22 29.1 75.01 29.44 73.66 29.44C72.3 29.44 71.09 29.1 70.03 28.43Q69.91 28.35 69.79 28.27Q68.36 27.26 67.5 25.44C66.89 24.12 66.58 22.51 66.58 20.59C66.58 18.67 66.89 17.06 67.5 15.75Q68.37 13.9 69.83 12.9Q69.93 12.83 70.03 12.76C71.09 12.08 72.3 11.74 73.66 11.74C75.01 11.74 76.22 12.08 77.28 12.76Q77.43 12.86 77.58 12.96Q78.98 13.96 79.81 15.75Z" fill="#FFFFFF" fill-opacity="1.000000" fill-rule="evenodd"/>
	<path id="CIELO" d="M48.04 8.82L48.04 32.36L51.59 32.36L51.59 11.88L62.25 11.88L62.25 8.82L48.04 8.82Z" fill="#FFFFFF" fill-opacity="1.000000" fill-rule="nonzero"/>
</svg>
